<?xml version="1.0"?>
<svg xmlns="http://www.w3.org/2000/svg" viewBox="0 0 64 64" width="512" height="512"><g id="flat"><path d="M32,3a75.37,75.37,0,0,0-4,14,175.1,175.1,0,0,0-2,20.5,6.86,6.86,0,0,0,.949,3.5h10.1A6.86,6.86,0,0,0,38,37.5,175.1,175.1,0,0,0,36,17,75.37,75.37,0,0,0,32,3Z" style="fill:#67c086"/><rect x="14" y="45" width="36" height="16" style="fill:#ad6327"/><path d="M41,17a93.693,93.693,0,0,0-9,10.762A93.693,93.693,0,0,0,23,17c-3-3-11-4-11-4,7.344,6.61,11.54,20.231,15,27,.073.143.139.267.209.4.043.21.09.41.145.6h9.292c.055-.188.1-.388.145-.6.07-.135.136-.259.209-.4,3.46-6.769,7.656-20.39,15-27C52,13,44,14,41,17Z" style="fill:#3e8051"/><path d="M45,27a108.091,108.091,0,0,0-13,7.3A108.091,108.091,0,0,0,19,27c-3.72-1.839-13-2-13-2,9.107,4.051,13.71,11.851,18,16H40c4.29-4.149,8.893-11.949,18-16C58,25,48.72,25.161,45,27Z" style="fill:#67c086"/><rect x="11" y="41" width="42" height="4" style="fill:#66342e"/><rect x="14" y="48" width="15" height="2" style="fill:#f3bb59"/><rect x="41" y="48" width="9" height="2" style="fill:#f3bb59"/><rect x="39" y="56" width="11" height="2" style="fill:#f3bb59"/><rect x="14" y="56" width="11" height="2" style="fill:#f3bb59"/><rect x="31" y="48" width="2" height="2" style="fill:#f3bb59"/></g></svg>
