<svg height="512" viewBox="0 0 64 64" width="512" xmlns="http://www.w3.org/2000/svg"><g id="flat"><path d="m51 17v-4a4 4 0 0 0 -4-4h-10a4 4 0 0 0 -4 4v3z" fill="#394d5c"/><path d="m29 38h26v23h-26z" fill="#66342e"/><path d="m29 49h-6v-8a3 3 0 0 1 3-3h3z" fill="#66342e"/><path d="m55 49h6v-8a3 3 0 0 0 -3-3h-3z" fill="#66342e"/><path d="m55 49h6v12h-6z" fill="#ffd782"/><path d="m51 34h-18v-18l12-3 6 4z" fill="#ffd782"/><g fill="#394d5c"><path d="m36 18h2v2h-2z"/><path d="m46 18h2v2h-2z"/><path d="m41 19h2v4h-2z"/></g><path d="m33 27a4 4 0 0 1 0-8z" fill="#f9bb4b"/><path d="m51 19a4 4 0 0 1 0 8z" fill="#f9bb4b"/><path d="m42 3a4 4 0 0 1 4 4v2a0 0 0 0 1 0 0h-8a0 0 0 0 1 0 0v-2a4 4 0 0 1 4-4z" fill="#143441"/><path d="m38 26h8a0 0 0 0 1 0 0v2a4 4 0 0 1 -4 4 4 4 0 0 1 -4-4v-2a0 0 0 0 1 0 0z" fill="#e33e5c"/><path d="m3 51h20v10h-20z" fill="#d3843d"/><path d="m11 45s0-8-7.975-8c0 0-.887 8 7.975 8z" fill="#c8d952"/><path d="m15 40s5 2 5-4.985c0 0-5-.553-5 4.985z" fill="#c8d952"/><path d="m15 51h4v10h-4z" fill="#ad6327"/><path d="m19 51h4v10h-4z" fill="#d3843d"/><path d="m11 32h4v19h-4z" fill="#8ec13f"/><path d="m11 51h4v10h-4z" fill="#d3843d"/><path d="m7 51h4v10h-4z" fill="#ad6327"/><path d="m23 49h6v12h-6z" fill="#ffd782"/><path d="m51 38v12h-18v-12h-4v23h26v-23z" fill="#dc6c54"/><path d="m37 38h10a0 0 0 0 1 0 0v3a5 5 0 0 1 -5 5 5 5 0 0 1 -5-5v-3a0 0 0 0 1 0 0z" fill="#ffd782"/><path d="m34 50h4a0 0 0 0 1 0 0v2a2 2 0 0 1 -2 2 2 2 0 0 1 -2-2v-2a0 0 0 0 1 0 0z" fill="#f1997e"/><path d="m38 50h4a0 0 0 0 1 0 0v2a2 2 0 0 1 -2 2 2 2 0 0 1 -2-2v-2a0 0 0 0 1 0 0z" fill="#c75048"/><path d="m42 50h4a0 0 0 0 1 0 0v2a2 2 0 0 1 -2 2 2 2 0 0 1 -2-2v-2a0 0 0 0 1 0 0z" fill="#f1997e"/><path d="m46 50h4a0 0 0 0 1 0 0v2a2 2 0 0 1 -2 2 2 2 0 0 1 -2-2v-2a0 0 0 0 1 0 0z" fill="#c75048"/><g fill="#db527d"><path d="m12 23s-2-2.364-2-4a2.832 2.832 0 0 1 3-3 2.832 2.832 0 0 1 3 3c0 1.636-2 4-2 4z"/><path d="m14 27s2 2.364 2 4a2.832 2.832 0 0 1 -3 3 2.832 2.832 0 0 1 -3-3c0-1.636 2-4 2-4z"/><path d="m15 24s2.364-2 4-2a2.832 2.832 0 0 1 3 3 2.832 2.832 0 0 1 -3 3c-1.636 0-4-2-4-2z"/><path d="m11 26s-2.364 2-4 2a2.832 2.832 0 0 1 -3-3 2.832 2.832 0 0 1 3-3c1.636 0 4 2 4 2z"/></g><rect fill="#f9bb4b" height="6" rx="3" width="6" x="10" y="22"/></g></svg>