<svg id="Capa_1" enable-background="new 0 0 512 512" height="512" viewBox="0 0 512 512" width="512" xmlns="http://www.w3.org/2000/svg"><g><g><path d="m395.736 182.33c26.241 0 47.513-21.272 47.513-47.513 0-17.221-9.161-32.301-22.876-40.634-.451-29.132-24.202-52.609-53.441-52.609-4.862 0-9.57.653-14.047 1.869-6.969-25.055-29.947-43.443-57.223-43.443s-50.254 18.388-57.222 43.443c-4.477-1.216-9.185-1.869-14.047-1.869-29.239 0-52.99 23.478-53.441 52.609-13.715 8.333-22.876 23.414-22.876 40.634 0 26.24 21.272 47.513 47.513 47.513z" fill="#e3996d"/></g><g><g><path d="m292.882 118.782c0-.022.001-.044.001-.067-31.51-1.452-56.612-27.455-56.612-59.324 0-5.525.757-10.873 2.169-15.948-4.477-1.216-9.185-1.869-14.047-1.869-29.239 0-52.99 23.478-53.441 52.609-13.715 8.333-22.876 23.414-22.876 40.634 0 26.24 21.272 47.513 47.513 47.513h126.375c-17.811-15.398-29.082-38.157-29.082-63.548z" fill="#d87c41"/></g></g><g><g><path d="m287.067 381.836-70.898 59.32c-15.246 12.757-33.821 19.335-52.676 19.335-11.838.001-23.784-2.592-35.092-7.874-29.319-13.697-47.532-42.308-47.532-74.669v-182.775h41.207v182.776c0 16.426 8.884 30.382 23.766 37.335 14.882 6.951 31.287 4.81 43.884-5.73l70.898-59.32z" fill="#a4afba"/></g></g><g><path d="m478.163 194.692 5.492-32.954h-417.669l207.859 206.036c101.257.001 187.672-73.204 204.318-173.082z" fill="#60d9a7"/></g><g><path d="m267.213 194.692-5.492-32.954h-195.735l207.859 206.036c35.576 0 69.313-9.047 98.842-25.102-54.516-29.64-94.676-83.193-105.474-147.98z" fill="#00c680"/></g><g><circle cx="439.887" cy="439.887" fill="#3b4456" r="72.113"/></g><g><path d="m413.994 486.107c0-14.3 11.593-25.893 25.893-25.893v-40.653c-14.3 0-25.893-11.593-25.893-25.893s11.593-25.893 25.893-25.893c-39.827 0-72.113 32.286-72.113 72.113s32.286 72.113 72.113 72.113c-14.3-.001-25.893-11.594-25.893-25.894z" fill="#303746"/></g><g><path d="m491.396 182.342h-441.201v-41.207h441.201c11.379 0 20.604 9.225 20.604 20.604 0 11.379-9.225 20.603-20.604 20.603z" fill="#d4d3d9"/></g><g><path d="m244.58 161.738c0-11.379 9.225-20.604 20.604-20.604h-214.989v41.207h214.989c-11.379.001-20.604-9.224-20.604-20.603z" fill="#a4afba"/></g><g><path d="m439.887 419.284h-68.881c-10.929 0-21.41-4.341-29.138-12.069l-247.972-247.973c-11.59-11.59-27.31-18.102-43.701-18.104l-29.588-.003c-11.38-.002-20.607 9.223-20.607 20.603 0 11.379 9.225 20.604 20.604 20.604h29.582c5.464 0 10.705 2.171 14.569 6.035l247.976 247.976c15.456 15.456 36.418 24.139 58.276 24.139h68.881c11.379 0 20.604-9.225 20.604-20.604-.001-11.38-9.226-20.604-20.605-20.604z" fill="#eaeaea"/></g><g><g><path d="m231.329 100.068c-4.142 0-7.5-3.358-7.5-7.5v-12.361c0-4.142 3.358-7.5 7.5-7.5s7.5 3.358 7.5 7.5v12.362c0 4.141-3.358 7.499-7.5 7.499z" fill="#303746"/></g><g><path d="m359.995 100.068c-4.143 0-7.5-3.358-7.5-7.5v-12.361c0-4.142 3.357-7.5 7.5-7.5s7.5 3.358 7.5 7.5v12.362c0 4.141-3.357 7.499-7.5 7.499z" fill="#303746"/></g><g><path d="m295.662 107.428c-8.668 0-16.91-3.754-22.615-10.299-2.722-3.123-2.396-7.86.727-10.582 3.122-2.722 7.859-2.397 10.582.726 2.854 3.276 6.976 5.155 11.307 5.155s8.452-1.879 11.307-5.155c2.722-3.123 7.46-3.449 10.582-.726 3.123 2.721 3.448 7.459.727 10.582-5.707 6.545-13.949 10.299-22.617 10.299z" fill="#303746"/></g></g><g><path d="m202.99 297.474c7.131-7.131 18.088-8.083 26.256-2.882l-135.35-135.35c-11.59-11.59-27.31-18.102-43.701-18.104l-29.588-.003c-11.38-.002-20.607 9.223-20.607 20.603 0 11.379 9.225 20.604 20.604 20.604h29.582c5.464 0 10.705 2.171 14.569 6.035l135.353 135.353c-5.201-8.168-4.249-19.125 2.882-26.256z" fill="#d4d3d9"/></g></g></svg>